<svg width="641" height="375" viewBox="0 0 641 375" fill="none" xmlns="http://www.w3.org/2000/svg">
<path d="M87.9999 135C52.9999 170 5.99467 297.341 71.5 326C119.5 347 177.5 375 233.5 375C279.524 375 443.788 367.5 479.788 313C515.788 258.5 636 138.5 640.5 96.5C649.551 12.0232 510.5 -31.5 479.788 27.7966C450.58 84.1874 295 -29.5 247.5 17C204.534 59.0615 137.006 85.9936 87.9999 135Z" fill="#638DFF" fill-opacity="0.25" stroke="#638DFF" stroke-opacity="0.25">
                                    <animate attributeName="d" values="M87.9999 135C52.9999 170 5.99467 297.341 71.5 326C119.5 347 177.5 375 233.5 375C279.524 375 443.788 367.5 479.788 313C515.788 258.5 636 138.5 640.5 96.5C649.551 12.0232 510.5 -31.5 479.788 27.7966C450.58 84.1874 295 -29.5 247.5 17C204.534 59.0615 137.006 85.9936 87.9999 135Z;M87.9999 135C52.9999 170 5.99467 297.341 71.5 326C119.5 347 177.5 375 233.5 375C279.524 375 443.788 367.5 479.788 313C515.788 258.5 636 138.5 640.5 96.4999C649.551 12.0232 510.5 -31.5001 479.788 27.7965C450.58 84.1873 295 -29.5001 247.5 16.9999C204.534 59.0614 137.006 85.9936 87.9999 135Z;M87.9999 135C52.9999 170 5.99467 297.341 71.5 326C119.5 347 177.5 375 233.5 375C279.524 375 443.788 367.5 479.788 313C515.788 258.5 636 138.5 640.5 96.5C649.551 12.0232 510.5 -31.5 479.788 27.7966C450.58 84.1874 295 -29.5 247.5 17C204.534 59.0615 137.006 85.9936 87.9999 135Z" begin="0s" dur="4s" repeatCount="indefinite" calcMode="linear" keyTimes="0;0.5;1"/></path>
<g clip-path="url(#clip0_159_121)">
<path d="M570.083 186.033H199.285C197.71 186.033 196.2 186.658 195.087 187.771C193.974 188.883 193.348 190.392 193.348 191.966C193.348 193.539 193.974 195.048 195.087 196.161C196.2 197.274 197.71 197.899 199.285 197.899H209.788V339.831C209.788 341.404 210.413 342.913 211.527 344.026C212.64 345.139 214.15 345.764 215.724 345.764C217.299 345.764 218.809 345.139 219.922 344.026C221.035 342.913 221.661 341.404 221.661 339.831L221.751 197.899H519.354L546.794 339.831C546.794 341.404 547.419 342.913 548.532 344.026C549.646 345.139 551.156 345.764 552.73 345.764C554.304 345.764 555.814 345.139 556.928 344.026C558.041 342.913 558.666 341.404 558.666 339.831L560.394 197.899H570.083C571.657 197.899 573.167 197.274 574.28 196.161C575.394 195.048 576.019 193.539 576.019 191.966C576.019 190.392 575.394 188.883 574.28 187.771C573.167 186.658 571.657 186.033 570.083 186.033Z" fill="#CCCCCC"/>
<path d="M263.558 159.597L263.558 184.721L200.575 184.721C198.924 184.779 197.278 184.51 195.731 183.932C194.184 183.354 192.767 182.477 191.559 181.351C190.351 180.225 189.377 178.872 188.692 177.37C188.007 175.868 187.626 174.246 187.568 172.596C187.511 170.947 187.779 169.302 188.358 167.756C188.936 166.21 189.814 164.793 190.94 163.585C192.067 162.378 193.42 161.405 194.923 160.721C196.426 160.036 198.05 159.655 199.7 159.597C199.992 159.587 200.283 159.587 200.575 159.597L263.558 159.597Z" fill="#F2F2F2">
                                    <animate attributeName="d" values="M263.558 159.597L263.558 184.721L200.575 184.721C198.924 184.779 197.278 184.51 195.731 183.932C194.184 183.354 192.767 182.477 191.559 181.351C190.351 180.225 189.377 178.872 188.692 177.37C188.007 175.868 187.626 174.246 187.568 172.596C187.511 170.947 187.779 169.302 188.358 167.756C188.936 166.21 189.814 164.793 190.94 163.585C192.067 162.378 193.42 161.405 194.923 160.721C196.426 160.036 198.05 159.655 199.7 159.597C199.992 159.587 200.283 159.587 200.575 159.597L263.558 159.597Z;M263.558 159.597L263.558 184.721L200.575 184.721C198.924 184.779 197.278 184.511 195.731 183.932C194.184 183.354 192.767 182.477 191.559 181.351C190.351 180.225 189.377 178.872 188.692 177.37C188.007 175.868 187.626 174.246 187.568 172.596C187.511 170.947 187.779 169.302 188.358 167.756C188.936 166.21 189.814 164.793 190.94 163.586C192.067 162.378 193.42 161.405 194.923 160.721C196.426 160.036 198.05 159.655 199.7 159.597C199.992 159.587 200.283 159.587 200.575 159.597L263.558 159.597Z;M263.558 159.597L263.558 184.721L200.575 184.721C198.924 184.779 197.278 184.51 195.731 183.932C194.184 183.354 192.767 182.477 191.559 181.351C190.351 180.225 189.377 178.872 188.692 177.37C188.007 175.868 187.626 174.246 187.568 172.596C187.511 170.947 187.779 169.302 188.358 167.756C188.936 166.21 189.814 164.793 190.94 163.585C192.067 162.378 193.42 161.405 194.923 160.721C196.426 160.036 198.05 159.655 199.7 159.597C199.992 159.587 200.283 159.587 200.575 159.597L263.558 159.597Z" begin="0s" dur="4s" repeatCount="indefinite" calcMode="linear" keyTimes="0;0.5;1"/></path>
<path d="M265.105 184.528C265.105 184.784 265.003 185.03 264.822 185.211C264.64 185.392 264.394 185.494 264.138 185.494H199.453C195.942 185.492 192.575 184.096 190.093 181.613C187.61 179.131 186.216 175.765 186.216 172.256C186.216 168.746 187.61 165.38 190.093 162.898C192.575 160.416 195.942 159.02 199.453 159.017H264.138C264.265 159.017 264.391 159.042 264.509 159.09C264.626 159.139 264.733 159.21 264.823 159.299C264.913 159.389 264.985 159.496 265.034 159.613C265.082 159.731 265.107 159.857 265.107 159.984C265.107 160.111 265.082 160.237 265.034 160.354C264.985 160.471 264.913 160.578 264.823 160.668C264.733 160.758 264.626 160.829 264.509 160.877C264.391 160.926 264.265 160.95 264.138 160.95H199.453C196.456 160.954 193.583 162.148 191.465 164.267C189.347 166.387 188.158 169.26 188.158 172.256C188.158 175.251 189.347 178.124 191.465 180.244C193.583 182.364 196.456 183.557 199.453 183.562H264.138C264.394 183.562 264.64 183.664 264.822 183.845C265.003 184.026 265.105 184.272 265.105 184.528Z" fill="#638DFF"/>
<path d="M263.558 165.395L195.876 165.395C195.824 165.395 195.775 165.375 195.739 165.339C195.702 165.303 195.682 165.255 195.681 165.203C195.681 165.152 195.701 165.103 195.736 165.067C195.772 165.03 195.821 165.009 195.872 165.008L263.558 165.008C263.609 165.009 263.657 165.03 263.693 165.066C263.729 165.102 263.749 165.151 263.749 165.202C263.749 165.253 263.729 165.302 263.693 165.338C263.657 165.374 263.609 165.394 263.558 165.395Z" fill="#CCCCCC">
                                    <animate attributeName="d" values="M263.558 165.395L195.876 165.395C195.824 165.395 195.775 165.375 195.739 165.339C195.702 165.303 195.682 165.255 195.681 165.203C195.681 165.152 195.701 165.103 195.736 165.067C195.772 165.03 195.821 165.009 195.872 165.008L263.558 165.008C263.609 165.009 263.657 165.03 263.693 165.066C263.729 165.102 263.749 165.151 263.749 165.202C263.749 165.253 263.729 165.302 263.693 165.338C263.657 165.374 263.609 165.394 263.558 165.395Z;M263.558 165.395L195.876 165.395C195.824 165.395 195.775 165.375 195.739 165.339C195.702 165.304 195.682 165.255 195.681 165.204C195.681 165.152 195.701 165.103 195.736 165.067C195.772 165.03 195.821 165.009 195.872 165.009L263.558 165.009C263.609 165.009 263.657 165.03 263.693 165.066C263.729 165.102 263.749 165.151 263.749 165.202C263.749 165.253 263.729 165.302 263.693 165.338C263.657 165.374 263.609 165.395 263.558 165.395Z;M263.558 165.395L195.876 165.395C195.824 165.395 195.775 165.375 195.739 165.339C195.702 165.303 195.682 165.255 195.681 165.203C195.681 165.152 195.701 165.103 195.736 165.067C195.772 165.03 195.821 165.009 195.872 165.008L263.558 165.008C263.609 165.009 263.657 165.03 263.693 165.066C263.729 165.102 263.749 165.151 263.749 165.202C263.749 165.253 263.729 165.302 263.693 165.338C263.657 165.374 263.609 165.394 263.558 165.395Z" begin="0s" dur="4s" repeatCount="indefinite" calcMode="linear" keyTimes="0;0.5;1"/></path>
<path d="M263.558 170.033H195.876C195.824 170.034 195.775 170.014 195.739 169.978C195.702 169.942 195.682 169.893 195.681 169.842C195.681 169.791 195.701 169.741 195.736 169.705C195.772 169.668 195.821 169.647 195.872 169.647H263.558C263.609 169.647 263.657 169.668 263.693 169.704C263.729 169.74 263.749 169.789 263.749 169.84C263.749 169.891 263.729 169.94 263.693 169.976C263.657 170.012 263.609 170.033 263.558 170.033Z" fill="#CCCCCC"/>
<path d="M263.558 174.672H195.876C195.824 174.672 195.775 174.652 195.739 174.616C195.702 174.58 195.682 174.531 195.681 174.48C195.681 174.429 195.701 174.38 195.736 174.343C195.772 174.307 195.821 174.286 195.872 174.285H263.558C263.609 174.286 263.657 174.306 263.693 174.342C263.729 174.379 263.749 174.427 263.749 174.478C263.749 174.529 263.729 174.578 263.693 174.614C263.657 174.65 263.609 174.671 263.558 174.672Z" fill="#CCCCCC"/>
<path d="M263.558 179.31L195.876 179.31C195.824 179.31 195.775 179.29 195.739 179.254C195.702 179.218 195.682 179.169 195.681 179.118C195.681 179.067 195.701 179.018 195.736 178.981C195.772 178.945 195.821 178.924 195.872 178.923L263.558 178.923C263.609 178.924 263.657 178.944 263.693 178.981C263.729 179.017 263.749 179.066 263.749 179.117C263.749 179.167 263.729 179.216 263.693 179.253C263.657 179.289 263.609 179.309 263.558 179.31Z" fill="#CCCCCC">
                                    <animate attributeName="d" values="M263.558 179.31L195.876 179.31C195.824 179.31 195.775 179.29 195.739 179.254C195.702 179.218 195.682 179.169 195.681 179.118C195.681 179.067 195.701 179.018 195.736 178.981C195.772 178.945 195.821 178.924 195.872 178.923L263.558 178.923C263.609 178.924 263.657 178.944 263.693 178.981C263.729 179.017 263.749 179.066 263.749 179.117C263.749 179.167 263.729 179.216 263.693 179.253C263.657 179.289 263.609 179.309 263.558 179.31Z;M263.558 179.31L195.876 179.31C195.824 179.31 195.775 179.29 195.739 179.254C195.702 179.218 195.682 179.169 195.681 179.118C195.681 179.067 195.701 179.018 195.736 178.981C195.772 178.945 195.821 178.924 195.872 178.923L263.558 178.923C263.609 178.924 263.657 178.944 263.693 178.981C263.729 179.017 263.749 179.066 263.749 179.117C263.749 179.168 263.729 179.216 263.693 179.253C263.657 179.289 263.609 179.309 263.558 179.31Z;M263.558 179.31L195.876 179.31C195.824 179.31 195.775 179.29 195.739 179.254C195.702 179.218 195.682 179.169 195.681 179.118C195.681 179.067 195.701 179.018 195.736 178.981C195.772 178.945 195.821 178.924 195.872 178.923L263.558 178.923C263.609 178.924 263.657 178.944 263.693 178.981C263.729 179.017 263.749 179.066 263.749 179.117C263.749 179.167 263.729 179.216 263.693 179.253C263.657 179.289 263.609 179.309 263.558 179.31Z" begin="0s" dur="4s" repeatCount="indefinite" calcMode="linear" keyTimes="0;0.5;1"/></path>
<path d="M251.685 133.128L251.685 158.252L188.702 158.252C185.368 158.367 182.125 157.155 179.686 154.881C177.247 152.607 175.811 149.458 175.695 146.127C175.579 142.795 176.792 139.554 179.068 137.116C181.343 134.678 184.494 133.243 187.827 133.128C188.119 133.117 188.41 133.117 188.702 133.128L251.685 133.128Z" fill="#F2F2F2">
                                    <animate attributeName="d" values="M251.685 133.128L251.685 158.252L188.702 158.252C185.368 158.367 182.125 157.155 179.686 154.881C177.247 152.607 175.811 149.458 175.695 146.127C175.579 142.795 176.792 139.554 179.068 137.116C181.343 134.678 184.494 133.243 187.827 133.128C188.119 133.117 188.41 133.117 188.702 133.128L251.685 133.128Z;M251.685 133.127L251.685 158.251L188.702 158.251C185.368 158.367 182.125 157.155 179.686 154.881C177.247 152.607 175.811 149.458 175.695 146.127C175.579 142.795 176.792 139.554 179.068 137.116C181.343 134.678 184.494 133.243 187.827 133.127C188.119 133.117 188.41 133.117 188.702 133.127L251.685 133.127Z;M251.685 133.128L251.685 158.252L188.702 158.252C185.368 158.367 182.125 157.155 179.686 154.881C177.247 152.607 175.811 149.458 175.695 146.127C175.579 142.795 176.792 139.554 179.068 137.116C181.343 134.678 184.494 133.243 187.827 133.128C188.119 133.117 188.41 133.117 188.702 133.128L251.685 133.128Z" begin="0s" dur="4s" repeatCount="indefinite" calcMode="linear" keyTimes="0;0.5;1"/></path>
<path d="M253.232 158.058C253.232 158.314 253.13 158.56 252.949 158.741C252.767 158.923 252.522 159.024 252.265 159.025H187.58C184.067 159.025 180.698 157.63 178.214 155.147C175.73 152.664 174.334 149.297 174.334 145.786C174.334 142.275 175.73 138.908 178.214 136.425C180.698 133.942 184.067 132.548 187.58 132.548H252.265C252.392 132.548 252.518 132.573 252.635 132.621C252.752 132.67 252.859 132.741 252.949 132.831C253.039 132.92 253.11 133.027 253.158 133.144C253.207 133.261 253.232 133.387 253.232 133.514C253.232 133.641 253.207 133.767 253.158 133.884C253.11 134.001 253.039 134.108 252.949 134.197C252.859 134.287 252.752 134.358 252.635 134.407C252.518 134.455 252.392 134.48 252.265 134.48H187.58C184.58 134.48 181.703 135.671 179.581 137.792C177.46 139.912 176.268 142.788 176.268 145.786C176.268 148.785 177.46 151.66 179.581 153.781C181.703 155.901 184.58 157.092 187.58 157.092H252.265C252.522 157.092 252.767 157.194 252.949 157.375C253.13 157.556 253.232 157.802 253.232 158.058Z" fill="#3F3D56"/>
<path d="M251.685 138.925H184.003C183.952 138.926 183.902 138.906 183.866 138.87C183.83 138.834 183.809 138.785 183.808 138.734C183.808 138.683 183.828 138.633 183.863 138.597C183.899 138.56 183.948 138.539 183.999 138.539H251.685C251.736 138.539 251.785 138.56 251.82 138.596C251.856 138.632 251.876 138.681 251.876 138.732C251.876 138.783 251.856 138.832 251.82 138.868C251.785 138.904 251.736 138.925 251.685 138.925Z" fill="#CCCCCC"/>
<path d="M251.685 143.564H184.003C183.952 143.564 183.902 143.544 183.866 143.508C183.83 143.472 183.809 143.423 183.808 143.372C183.808 143.321 183.828 143.272 183.863 143.235C183.899 143.199 183.948 143.178 183.999 143.177H251.685C251.736 143.178 251.785 143.198 251.82 143.234C251.856 143.271 251.876 143.319 251.876 143.37C251.876 143.421 251.856 143.47 251.82 143.506C251.785 143.543 251.736 143.563 251.685 143.564Z" fill="#CCCCCC"/>
<path d="M251.685 148.202H184.003C183.952 148.202 183.902 148.182 183.866 148.146C183.83 148.11 183.809 148.062 183.808 148.01C183.808 147.959 183.828 147.91 183.863 147.874C183.899 147.837 183.948 147.816 183.999 147.815H251.685C251.736 147.816 251.785 147.837 251.82 147.873C251.856 147.909 251.876 147.958 251.876 148.009C251.876 148.06 251.856 148.108 251.82 148.145C251.785 148.181 251.736 148.201 251.685 148.202Z" fill="#CCCCCC"/>
<path d="M251.685 152.84H184.003C183.952 152.84 183.902 152.82 183.866 152.785C183.83 152.749 183.809 152.7 183.808 152.649C183.808 152.598 183.828 152.548 183.863 152.512C183.899 152.475 183.948 152.454 183.999 152.454H251.685C251.736 152.454 251.785 152.475 251.82 152.511C251.856 152.547 251.876 152.596 251.876 152.647C251.876 152.698 251.856 152.747 251.82 152.783C251.785 152.819 251.736 152.84 251.685 152.84Z" fill="#CCCCCC"/>
<path d="M324.953 274.936V253.03C324.953 252.062 324.568 251.133 323.883 250.449C323.198 249.764 322.269 249.379 321.3 249.379H238.19C237.221 249.379 236.292 249.764 235.607 250.449C234.922 251.133 234.537 252.062 234.537 253.03V274.936H324.953Z" fill="#CCCCCC"/>
<path d="M324.953 283.151H234.537V311.446H324.953V283.151Z" fill="#CCCCCC"/>
<path d="M234.537 319.661V341.567C234.537 342.535 234.922 343.464 235.607 344.148C236.292 344.833 237.221 345.218 238.19 345.218H321.3C322.269 345.218 323.198 344.833 323.883 344.148C324.568 343.464 324.953 342.535 324.953 341.567V319.661H234.537Z" fill="#CCCCCC"/>
<path d="M279.288 265.809C280.802 265.809 282.028 264.583 282.028 263.071C282.028 261.558 280.802 260.332 279.288 260.332C277.775 260.332 276.549 261.558 276.549 263.071C276.549 264.583 277.775 265.809 279.288 265.809Z" fill="white"/>
<path d="M279.288 302.319C280.802 302.319 282.028 301.093 282.028 299.58C282.028 298.068 280.802 296.842 279.288 296.842C277.775 296.842 276.549 298.068 276.549 299.58C276.549 301.093 277.775 302.319 279.288 302.319Z" fill="white"/>
<path d="M279.435 338.055C280.948 338.055 282.175 336.829 282.175 335.317C282.175 333.805 280.948 332.579 279.435 332.579C277.922 332.579 276.695 333.805 276.695 335.317C276.695 336.829 277.922 338.055 279.435 338.055Z" fill="white"/>
<path d="M314.702 224.402V249.526H251.719C248.387 249.64 245.146 248.426 242.709 246.153C240.271 243.879 238.837 240.731 238.721 237.401C238.605 234.071 239.817 230.831 242.09 228.394C244.363 225.956 247.512 224.52 250.844 224.402C251.136 224.392 251.428 224.392 251.719 224.402H314.702Z" fill="#F2F2F2"/>
<path d="M316.249 249.333C316.249 249.589 316.147 249.835 315.966 250.016C315.785 250.197 315.539 250.299 315.282 250.299H250.598C247.085 250.3 243.716 248.907 241.232 246.426C238.747 243.945 237.35 240.579 237.348 237.069C237.346 233.559 238.739 230.191 241.22 227.707C243.702 225.223 247.069 223.826 250.582 223.822H315.282C315.41 223.822 315.536 223.847 315.653 223.895C315.771 223.944 315.878 224.015 315.968 224.105C316.058 224.194 316.129 224.301 316.178 224.418C316.227 224.536 316.252 224.662 316.252 224.789C316.252 224.916 316.227 225.042 316.178 225.159C316.129 225.276 316.058 225.383 315.968 225.473C315.878 225.563 315.771 225.634 315.653 225.682C315.536 225.731 315.41 225.755 315.282 225.755H250.598C247.6 225.759 244.726 226.952 242.608 229.072C240.49 231.191 239.3 234.065 239.3 237.061C239.3 240.057 240.49 242.93 242.608 245.05C244.726 247.17 247.6 248.363 250.598 248.367H315.282C315.539 248.367 315.785 248.469 315.966 248.65C316.147 248.831 316.249 249.077 316.249 249.333Z" fill="#3F3D56"/>
<path d="M314.702 230.2H247.02C246.969 230.2 246.92 230.18 246.883 230.144C246.847 230.108 246.826 230.06 246.826 230.009C246.825 229.957 246.845 229.908 246.881 229.872C246.917 229.835 246.965 229.814 247.017 229.813H314.702C314.753 229.814 314.802 229.835 314.838 229.871C314.874 229.907 314.894 229.956 314.894 230.007C314.894 230.058 314.874 230.107 314.838 230.143C314.802 230.179 314.753 230.199 314.702 230.2Z" fill="#CCCCCC"/>
<path d="M314.702 234.838H247.02C246.969 234.839 246.92 234.819 246.883 234.783C246.847 234.747 246.826 234.698 246.826 234.647C246.825 234.596 246.845 234.546 246.881 234.51C246.917 234.473 246.965 234.452 247.017 234.452H314.702C314.753 234.452 314.802 234.473 314.838 234.509C314.874 234.545 314.894 234.594 314.894 234.645C314.894 234.696 314.874 234.745 314.838 234.781C314.802 234.817 314.753 234.838 314.702 234.838Z" fill="#CCCCCC"/>
<path d="M314.702 239.477H247.02C246.969 239.477 246.92 239.457 246.883 239.421C246.847 239.385 246.826 239.336 246.826 239.285C246.825 239.234 246.845 239.185 246.881 239.148C246.917 239.112 246.965 239.091 247.017 239.09H314.702C314.753 239.091 314.802 239.111 314.838 239.147C314.874 239.184 314.894 239.232 314.894 239.283C314.894 239.334 314.874 239.383 314.838 239.419C314.802 239.456 314.753 239.476 314.702 239.477Z" fill="#CCCCCC"/>
<path d="M314.702 244.115H247.02C246.969 244.115 246.92 244.095 246.883 244.059C246.847 244.023 246.826 243.974 246.826 243.923C246.825 243.872 246.845 243.823 246.881 243.786C246.917 243.75 246.965 243.729 247.017 243.728H314.702C314.753 243.729 314.802 243.749 314.838 243.786C314.874 243.822 314.894 243.871 314.894 243.922C314.894 243.972 314.874 244.021 314.838 244.057C314.802 244.094 314.753 244.114 314.702 244.115Z" fill="#CCCCCC"/>
<path d="M240.732 124.746L212.037 124.746C211.764 124.746 211.496 124.808 211.251 124.929L204.009 128.552C203.77 128.654 203.567 128.823 203.424 129.039C203.281 129.254 203.205 129.507 203.205 129.766C203.205 130.025 203.281 130.278 203.424 130.494C203.567 130.71 203.77 130.879 204.009 130.98L211.251 134.604C211.496 134.724 211.764 134.787 212.037 134.786L240.732 134.786C241.128 134.809 241.516 134.676 241.814 134.414C242.111 134.153 242.294 133.785 242.322 133.39L242.322 126.143C242.294 125.748 242.111 125.38 241.814 125.118C241.516 124.857 241.128 124.723 240.732 124.746Z" fill="#3F3D56">
                                    <animate attributeName="d" values="M240.732 124.746L212.037 124.746C211.764 124.746 211.496 124.808 211.251 124.929L204.009 128.552C203.77 128.654 203.567 128.823 203.424 129.039C203.281 129.254 203.205 129.507 203.205 129.766C203.205 130.025 203.281 130.278 203.424 130.494C203.567 130.71 203.77 130.879 204.009 130.98L211.251 134.604C211.496 134.724 211.764 134.787 212.037 134.786L240.732 134.786C241.128 134.809 241.516 134.676 241.814 134.414C242.111 134.153 242.294 133.785 242.322 133.39L242.322 126.143C242.294 125.748 242.111 125.38 241.814 125.118C241.516 124.857 241.128 124.723 240.732 124.746Z;M240.732 124.746L212.037 124.746C211.764 124.746 211.496 124.808 211.251 124.929L204.009 128.552C203.77 128.654 203.567 128.823 203.424 129.038C203.281 129.254 203.205 129.507 203.205 129.766C203.205 130.025 203.281 130.278 203.424 130.494C203.567 130.71 203.77 130.879 204.009 130.98L211.251 134.604C211.496 134.724 211.764 134.787 212.037 134.786L240.732 134.786C241.128 134.809 241.516 134.675 241.814 134.414C242.111 134.153 242.294 133.785 242.322 133.39L242.322 126.143C242.294 125.748 242.111 125.38 241.814 125.118C241.516 124.857 241.128 124.723 240.732 124.746Z;M240.732 124.746L212.037 124.746C211.764 124.746 211.496 124.808 211.251 124.929L204.009 128.552C203.77 128.654 203.567 128.823 203.424 129.039C203.281 129.254 203.205 129.507 203.205 129.766C203.205 130.025 203.281 130.278 203.424 130.494C203.567 130.71 203.77 130.879 204.009 130.98L211.251 134.604C211.496 134.724 211.764 134.787 212.037 134.786L240.732 134.786C241.128 134.809 241.516 134.676 241.814 134.414C242.111 134.153 242.294 133.785 242.322 133.39L242.322 126.143C242.294 125.748 242.111 125.38 241.814 125.118C241.516 124.857 241.128 124.723 240.732 124.746Z" begin="0s" dur="4s" repeatCount="indefinite" calcMode="linear" keyTimes="0;0.5;1"/></path>
<path d="M242.322 126.143L242.322 133.39C242.294 133.785 242.111 134.153 241.814 134.414C241.516 134.676 241.128 134.809 240.732 134.786L235.015 134.786L235.015 124.746L240.732 124.746C241.128 124.723 241.516 124.857 241.814 125.119C242.111 125.38 242.294 125.748 242.322 126.143Z" fill="#638DFF">
                                    <animate attributeName="d" values="M242.322 126.143L242.322 133.39C242.294 133.785 242.111 134.153 241.814 134.414C241.516 134.676 241.128 134.809 240.732 134.786L235.015 134.786L235.015 124.746L240.732 124.746C241.128 124.723 241.516 124.857 241.814 125.119C242.111 125.38 242.294 125.748 242.322 126.143Z;M242.322 126.143L242.322 133.39C242.294 133.785 242.111 134.153 241.814 134.414C241.516 134.676 241.128 134.809 240.732 134.786L235.015 134.786L235.015 124.746L240.732 124.746C241.128 124.723 241.516 124.857 241.814 125.118C242.111 125.38 242.294 125.748 242.322 126.143Z;M242.322 126.143L242.322 133.39C242.294 133.785 242.111 134.153 241.814 134.414C241.516 134.676 241.128 134.809 240.732 134.786L235.015 134.786L235.015 124.746L240.732 124.746C241.128 124.723 241.516 124.857 241.814 125.119C242.111 125.38 242.294 125.748 242.322 126.143Z" begin="0s" dur="4s" repeatCount="indefinite" calcMode="linear" keyTimes="0;0.5;1"/></path>
<path d="M64.7472 266.805C68.5265 267.832 72.5068 267.87 76.3048 266.913C80.1027 265.957 83.5903 264.039 86.4315 261.344C93.6566 254.333 95.2972 243.526 96.5455 233.539C97.7762 223.693 99.007 213.846 100.238 204L88.6911 213.245C80.3874 219.894 71.9009 226.75 66.4814 235.9C61.062 245.051 59.2834 257.135 64.8296 266.209" fill="#E6E6E6">
                                    <animate attributeName="d" values="M64.7472 266.805C68.5265 267.832 72.5068 267.87 76.3048 266.913C80.1027 265.957 83.5903 264.039 86.4315 261.344C93.6566 254.333 95.2972 243.526 96.5455 233.539C97.7762 223.693 99.007 213.846 100.238 204L88.6911 213.245C80.3874 219.894 71.9009 226.75 66.4814 235.9C61.062 245.051 59.2834 257.135 64.8296 266.209;M62.3212 268.857C66.1801 269.526 70.1464 269.189 73.8379 267.881C77.5294 266.572 80.8217 264.336 83.3977 261.387C89.9332 253.728 90.5529 242.815 90.8589 232.755C91.1606 222.837 91.4623 212.918 91.764 203L81.1355 213.288C73.4921 220.686 65.686 228.307 61.1488 237.926C56.6117 247.545 55.9744 259.742 62.3473 268.256;M64.7472 266.805C68.5265 267.832 72.5068 267.87 76.3048 266.913C80.1027 265.957 83.5903 264.039 86.4315 261.344C93.6566 254.333 95.2972 243.526 96.5455 233.539C97.7762 223.693 99.007 213.846 100.238 204L88.6911 213.245C80.3874 219.894 71.9009 226.75 66.4814 235.9C61.062 245.051 59.2834 257.135 64.8296 266.209" begin="0s" dur="4s" repeatCount="indefinite" calcMode="linear" keyTimes="0;0.5;1"/></path>
<path d="M68.3442 301.983C66.4643 293.118 64.5414 284.14 64.7475 275.027C64.9305 266.933 66.8146 258.904 71.343 252.105C73.7471 248.502 76.7616 245.346 80.2509 242.778C81.1607 242.107 82.1478 243.554 81.242 244.222C75.2054 248.677 70.7402 254.932 68.4903 262.087C66.009 270.041 66.1322 278.507 67.2526 286.685C67.9301 291.63 68.9602 296.517 69.995 301.397C70.0646 301.616 70.0483 301.853 69.9495 302.061C69.8508 302.268 69.6768 302.431 69.4629 302.515C69.2439 302.591 69.0037 302.578 68.7942 302.479C68.5848 302.379 68.4231 302.201 68.3442 301.983Z" fill="#F2F2F2">
                                    <animate attributeName="d" values="M68.3442 301.983C66.4643 293.118 64.5414 284.14 64.7475 275.027C64.9305 266.933 66.8146 258.904 71.343 252.105C73.7471 248.502 76.7616 245.346 80.2509 242.778C81.1607 242.107 82.1478 243.554 81.242 244.222C75.2054 248.677 70.7402 254.932 68.4903 262.087C66.009 270.041 66.1322 278.507 67.2526 286.685C67.9301 291.63 68.9602 296.517 69.995 301.397C70.0646 301.616 70.0483 301.853 69.9495 302.061C69.8508 302.268 69.6768 302.431 69.4629 302.515C69.2439 302.591 69.0037 302.578 68.7942 302.479C68.5848 302.379 68.4231 302.201 68.3442 301.983Z;M69.202 303.543C66.4989 294.893 63.7423 286.135 63.0926 277.042C62.5157 268.967 63.6383 260.797 67.509 253.603C69.5646 249.79 72.2697 246.365 75.5027 243.482C76.3456 242.729 77.464 244.076 76.6248 244.826C71.0328 249.828 67.1741 256.475 65.6051 263.809C63.881 271.961 64.7977 280.378 66.6802 288.414C67.8187 293.274 69.3026 298.043 70.7906 302.804C70.8804 303.016 70.8865 303.254 70.8076 303.469C70.7287 303.685 70.5708 303.863 70.3657 303.967C70.1549 304.064 69.9144 304.073 69.6966 303.994C69.4788 303.914 69.301 303.752 69.202 303.543Z;M68.3442 301.983C66.4643 293.118 64.5414 284.14 64.7475 275.027C64.9305 266.933 66.8146 258.904 71.343 252.105C73.7471 248.502 76.7616 245.346 80.2509 242.778C81.1607 242.107 82.1478 243.554 81.242 244.222C75.2054 248.677 70.7402 254.932 68.4903 262.087C66.009 270.041 66.1322 278.507 67.2526 286.685C67.9301 291.63 68.9602 296.517 69.995 301.397C70.0646 301.616 70.0483 301.853 69.9495 302.061C69.8508 302.268 69.6768 302.431 69.4629 302.515C69.2439 302.591 69.0037 302.578 68.7942 302.479C68.5848 302.379 68.4231 302.201 68.3442 301.983Z" begin="0s" dur="4s" repeatCount="indefinite" calcMode="linear" keyTimes="0;0.5;1"/></path>
<path d="M81.6136 286.211C83.1983 288.618 85.3766 290.576 87.9386 291.898C90.5006 293.219 93.36 293.859 96.2413 293.756C103.646 293.404 109.819 288.239 115.376 283.336L131.813 268.832L120.935 268.312C113.112 267.938 105.087 267.589 97.6355 270C90.1843 272.411 83.3124 278.213 81.9499 285.921" fill="#E6E6E6">
                                    <animate attributeName="d" values="M81.6136 286.211C83.1983 288.618 85.3766 290.576 87.9386 291.898C90.5006 293.219 93.36 293.859 96.2413 293.756C103.646 293.404 109.819 288.239 115.376 283.336L131.813 268.832L120.935 268.312C113.112 267.938 105.087 267.589 97.6355 270C90.1843 272.411 83.3124 278.213 81.9499 285.921;M82.6335 286.251C84.5504 288.403 86.9896 290.025 89.7162 290.961C92.4427 291.897 95.3646 292.116 98.2004 291.596C105.476 290.175 110.835 284.169 115.623 278.512L129.783 261.779L118.944 262.841C111.15 263.605 103.159 264.423 96.1359 267.889C89.113 271.354 83.1549 278.092 82.9243 285.916;M81.6136 286.211C83.1983 288.618 85.3766 290.576 87.9386 291.898C90.5006 293.219 93.36 293.859 96.2413 293.756C103.646 293.404 109.819 288.239 115.376 283.336L131.813 268.832L120.935 268.312C113.112 267.938 105.087 267.589 97.6355 270C90.1843 272.411 83.3124 278.213 81.9499 285.921" begin="0s" dur="4s" repeatCount="indefinite" calcMode="linear" keyTimes="0;0.5;1"/></path>
<path d="M66.249 307.259C72.1852 296.762 79.0707 285.095 91.3738 281.366C94.7947 280.333 98.3817 279.963 101.942 280.275C103.064 280.372 102.784 282.101 101.664 282.004C95.6963 281.509 89.7405 283.084 84.7989 286.463C80.0437 289.698 76.3412 294.195 73.2075 298.964C71.288 301.886 69.5686 304.931 67.8489 307.972C67.2994 308.944 65.693 308.242 66.249 307.259Z" fill="#F2F2F2"/>
<path d="M56.7375 318.308C56.9375 315.992 57.7696 313.775 59.1432 311.899C60.5167 310.023 62.379 308.559 64.5274 307.667V301.599H74.7121V307.859C76.7547 308.794 78.5126 310.254 79.8065 312.09C81.1005 313.925 81.8842 316.071 82.0778 318.308L84.4727 346.13H54.3426L56.7375 318.308Z" fill="#F2F2F2"/>
<path d="M403.104 185.463L400.074 184.188L397.995 169.008H370.317L368.064 184.126L365.354 185.48C365.224 185.545 365.12 185.652 365.059 185.783C364.997 185.914 364.982 186.062 365.015 186.203C365.049 186.344 365.129 186.47 365.242 186.56C365.356 186.65 365.497 186.699 365.642 186.699H402.854C403.003 186.699 403.147 186.648 403.262 186.553C403.377 186.459 403.456 186.328 403.485 186.183C403.514 186.037 403.492 185.886 403.423 185.755C403.353 185.624 403.241 185.52 403.104 185.463Z" fill="#E6E6E6"/>
<path d="M452.29 171.028H316.327C315.614 171.026 314.93 170.742 314.426 170.237C313.922 169.733 313.639 169.049 313.639 168.336V149.175H454.977V168.336C454.977 169.049 454.694 169.733 454.19 170.237C453.686 170.742 453.003 171.026 452.29 171.028Z" fill="#CCCCCC"/>
<path d="M455.119 158.231H313.515V76.2452C313.516 75.3848 313.859 74.5599 314.468 73.9516C315.076 73.3432 315.902 73.001 316.763 73H451.872C452.733 73.001 453.558 73.3432 454.167 73.9516C454.776 74.5599 455.118 75.3848 455.119 76.2452L455.119 158.231Z" fill="#3F3D56"/>
<path d="M446.662 152.28L321.973 152.28C321.309 152.28 320.673 152.016 320.203 151.547C319.734 151.078 319.47 150.442 319.469 149.779L319.469 81.4524C319.47 80.789 319.734 80.1531 320.203 79.684C320.673 79.215 321.309 78.9511 321.973 78.9504L446.662 78.9504C447.326 78.9511 447.962 79.215 448.431 79.684C448.9 80.1531 449.164 80.789 449.165 81.4524L449.165 149.779C449.164 150.442 448.9 151.078 448.431 151.547C447.962 152.016 447.326 152.28 446.662 152.28Z" fill="white">
                                    <animate attributeName="d" values="M446.662 152.28L321.973 152.28C321.309 152.28 320.673 152.016 320.203 151.547C319.734 151.078 319.47 150.442 319.469 149.779L319.469 81.4524C319.47 80.789 319.734 80.1531 320.203 79.684C320.673 79.215 321.309 78.9511 321.973 78.9504L446.662 78.9504C447.326 78.9511 447.962 79.215 448.431 79.684C448.9 80.1531 449.164 80.789 449.165 81.4524L449.165 149.779C449.164 150.442 448.9 151.078 448.431 151.547C447.962 152.016 447.326 152.28 446.662 152.28Z;M446.662 152.28L321.973 152.28C321.309 152.28 320.673 152.016 320.203 151.547C319.734 151.078 319.47 150.442 319.469 149.779L319.469 81.4524C319.47 80.7891 319.734 80.1531 320.203 79.6841C320.673 79.215 321.309 78.9512 321.973 78.9504L446.662 78.9504C447.326 78.9512 447.962 79.215 448.431 79.6841C448.9 80.1531 449.164 80.7891 449.165 81.4524L449.165 149.779C449.164 150.442 448.9 151.078 448.431 151.547C447.962 152.016 447.325 152.28 446.662 152.28Z;M446.662 152.28L321.973 152.28C321.309 152.28 320.673 152.016 320.203 151.547C319.734 151.078 319.47 150.442 319.469 149.779L319.469 81.4524C319.47 80.789 319.734 80.1531 320.203 79.684C320.673 79.215 321.309 78.9511 321.973 78.9504L446.662 78.9504C447.326 78.9511 447.962 79.215 448.431 79.684C448.9 80.1531 449.164 80.789 449.165 81.4524L449.165 149.779C449.164 150.442 448.9 151.078 448.431 151.547C447.962 152.016 447.326 152.28 446.662 152.28Z" begin="0s" dur="4s" repeatCount="indefinite" calcMode="linear" keyTimes="0;0.5;1"/></path>
<path d="M413.821 176.389C414.626 175.646 415.584 175.088 416.628 174.755C417.672 174.423 418.776 174.322 419.863 174.462C420.95 174.602 421.993 174.978 422.919 175.564C423.845 176.15 424.631 176.932 425.221 177.855L442.087 174.858L446.409 184.657L422.532 188.555C420.915 189.444 419.029 189.709 417.229 189.301C415.43 188.892 413.843 187.838 412.769 186.339C411.696 184.839 411.21 182.998 411.403 181.164C411.597 179.331 412.457 177.632 413.821 176.389Z" fill="#FFB6B6"/>
<path d="M429.436 188.901L447.018 188.682L449.244 188.652L485.017 188.201C485.017 188.201 494.731 178.939 503.19 169.403L502.005 160.833C500.848 152.422 496.673 144.717 490.257 139.153C478.142 147.243 471.116 163.257 471.116 163.257L448.936 168.559L446.717 169.09L432.935 172.381L429.436 188.901Z" fill="#638DFF"/>
<path d="M519.444 241.578H486.623C486.623 242.983 450.746 244.124 450.746 244.124C449.955 244.72 449.233 245.403 448.596 246.161C446.681 248.444 445.634 251.329 445.64 254.308V256.345C445.642 259.721 446.984 262.959 449.373 265.346C451.761 267.733 455.001 269.075 458.379 269.076H519.444C522.821 269.073 526.06 267.731 528.448 265.344C530.836 262.957 532.179 259.721 532.182 256.345V254.308C532.177 250.934 530.834 247.698 528.446 245.312C526.058 242.925 522.821 241.583 519.444 241.578Z" fill="#E4E4E4"/>
<path d="M495.577 268.57H482.329V344.99H495.577V268.57Z" fill="#E4E4E4"/>
<path d="M444.624 344.525C444.624 345.956 464.699 345.079 489.463 345.079C514.226 345.079 534.301 345.956 534.301 344.525C534.301 343.095 514.226 331.751 489.463 331.751C464.699 331.751 444.624 343.095 444.624 344.525Z" fill="#E4E4E4"/>
<path d="M435.725 335.794L425.866 335.793L421.176 297.786L435.727 297.787L435.725 335.794Z" fill="#FFB6B6"/>
<path d="M438.24 345.345L406.449 345.344V344.942C406.449 341.662 407.753 338.517 410.073 336.198C412.394 333.879 415.541 332.576 418.823 332.575H418.823L438.24 332.576L438.24 345.345Z" fill="#2F2E41"/>
<path d="M406.585 335.794L396.725 335.793L392.035 297.786L406.586 297.787L406.585 335.794Z" fill="#FFB6B6"/>
<path d="M409.099 345.345L377.308 345.344V344.942C377.308 341.662 378.612 338.517 380.933 336.198C383.253 333.879 386.401 332.576 389.682 332.575H389.683L409.1 332.576L409.099 345.345Z" fill="#2F2E41"/>
<path d="M494.904 116.986C504.371 116.986 512.046 109.315 512.046 99.8534C512.046 90.3913 504.371 82.7208 494.904 82.7208C485.436 82.7208 477.761 90.3913 477.761 99.8534C477.761 109.315 485.436 116.986 494.904 116.986Z" fill="#FFB6B6"/>
<path d="M522.649 217.239C522.649 217.239 528.401 247.636 506.516 251.507C484.63 255.378 453.039 258.098 453.039 258.098L438.852 324.249L419.792 322.549C419.792 322.549 422.327 242.918 428.561 236.688C434.794 230.458 474.194 211.804 474.194 211.804L522.649 217.239Z" fill="#2F2E41"/>
<path d="M479.906 204.499L470.334 214.096C470.334 214.096 401.222 225.221 398.556 241.174C394.53 265.26 389.776 317.635 389.776 317.635L410.555 316.077L418.703 256.541L451.95 248.983L489.776 228.381L479.906 204.499Z" fill="#2F2E41"/>
<path d="M511.4 89.6266C509.708 86.4357 507.557 80.0762 504.142 78.8968C502.245 78.2682 500.285 77.8508 498.296 77.6522L492.49 79.8838L495.65 77.4278C495.035 77.3912 494.42 77.3612 493.806 77.338L489.888 78.8436L491.893 77.2859C488.241 77.2484 484.471 77.6279 481.642 79.8497C479.229 81.7438 476.839 88.9189 476.453 91.9603C476.04 94.8699 476.184 97.8314 476.879 100.687L477.871 101.63C478.218 100.834 478.479 100.004 478.649 99.1537C479.005 97.5643 479.688 96.0663 480.655 94.7553C481.622 93.4443 482.851 92.349 484.265 91.5391L484.319 91.5087C485.983 90.5729 488.002 90.616 489.91 90.6846L498.971 91.0105C501.152 91.0889 503.499 91.2268 505.199 92.5935C506.279 93.6017 507.128 94.8314 507.689 96.1984C508.533 97.9019 510.184 104.327 510.184 104.327C510.184 104.327 511.117 103.115 511.565 104.017C512.283 101.662 512.719 99.23 512.865 96.7722C513.008 94.3035 512.503 91.8403 511.4 89.6266Z" fill="#2F2E41"/>
<path d="M571.358 107.377C570.264 107.449 569.2 107.76 568.239 108.287C567.279 108.815 566.446 109.547 565.799 110.431C565.152 111.315 564.707 112.33 564.496 113.405C564.284 114.479 564.31 115.587 564.573 116.65L550.788 126.813L554.924 136.692L574.19 122.067C575.948 121.507 577.439 120.322 578.382 118.736C579.324 117.151 579.652 115.275 579.302 113.465C578.953 111.654 577.952 110.034 576.488 108.912C575.023 107.79 573.198 107.244 571.358 107.377Z" fill="#FFB6B6">
                                    <animate attributeName="d" values="M571.358 107.377C570.264 107.449 569.2 107.76 568.239 108.287C567.279 108.815 566.446 109.547 565.799 110.431C565.152 111.315 564.707 112.33 564.496 113.405C564.284 114.479 564.31 115.587 564.573 116.65L550.788 126.813L554.924 136.692L574.19 122.067C575.948 121.507 577.439 120.322 578.382 118.736C579.324 117.151 579.652 115.275 579.302 113.465C578.953 111.654 577.952 110.034 576.488 108.912C575.023 107.79 573.198 107.244 571.358 107.377Z;M562.839 96.1962C561.805 96.5601 560.864 97.1461 560.081 97.9129C559.298 98.6797 558.693 99.6087 558.308 100.634C557.924 101.66 557.769 102.758 557.854 103.849C557.94 104.941 558.264 106.001 558.803 106.954L548.266 120.455L554.911 128.854L569.524 109.579C571.066 108.566 572.183 107.024 572.663 105.243C573.144 103.462 572.954 101.568 572.13 99.918C571.306 98.2684 569.905 96.9783 568.192 96.2924C566.48 95.6064 564.575 95.5722 562.839 96.1962Z;M571.358 107.377C570.264 107.449 569.2 107.76 568.239 108.287C567.279 108.815 566.446 109.547 565.799 110.431C565.152 111.315 564.707 112.33 564.496 113.405C564.284 114.479 564.31 115.587 564.573 116.65L550.788 126.813L554.924 136.692L574.19 122.067C575.948 121.507 577.439 120.322 578.382 118.736C579.324 117.151 579.652 115.275 579.302 113.465C578.953 111.654 577.952 110.034 576.488 108.912C575.023 107.79 573.198 107.244 571.358 107.377Z" begin="0s" dur="4s" repeatCount="indefinite" calcMode="linear" keyTimes="0;0.5;1"/></path>
<path d="M569.139 128.124L534.58 166.483C534.58 166.483 518.054 161.195 505.272 155.463L499.53 137.838C498.197 133.749 497.628 129.45 497.852 125.155C515.57 120.443 536.179 137.976 536.179 137.976L562.048 117.725L569.139 128.124Z" fill="#638DFF">
                                    <animate attributeName="d" values="M569.139 128.124L534.58 166.483C534.58 166.483 518.054 161.195 505.272 155.463L499.53 137.838C498.197 133.749 497.628 129.45 497.852 125.155C515.57 120.443 536.179 137.976 536.179 137.976L562.048 117.725L569.139 128.124Z;M566.292 116.774L543.346 163.025C543.346 163.025 526.006 162.385 512.153 160.309L501.874 144.882C499.489 141.304 497.782 137.317 496.841 133.121C512.635 123.809 537.205 135.141 537.205 135.141L556.661 108.67L566.292 116.774Z;M569.139 128.124L534.58 166.483C534.58 166.483 518.054 161.195 505.272 155.463L499.53 137.838C498.197 133.749 497.628 129.45 497.852 125.155C515.57 120.443 536.179 137.976 536.179 137.976L562.048 117.725L569.139 128.124Z" begin="0s" dur="4s" repeatCount="indefinite" calcMode="linear" keyTimes="0;0.5;1"/></path>
<path d="M488.5 220.072C482.335 217.944 475.959 215.743 469.083 214.916L468.787 214.881L468.869 214.595C475.987 189.616 474.211 173.636 470.722 149.633C469.98 144.456 470.934 139.178 473.44 134.586C475.946 129.995 479.871 126.336 484.628 124.157L484.67 124.138L504.311 122.891L504.356 122.888L518.64 127.086C520.695 127.695 522.493 128.96 523.76 130.688C525.027 132.415 525.692 134.51 525.653 136.652C525.498 144.546 525.826 153.359 526.174 162.689C526.953 183.622 527.759 205.267 523.186 219.311L523.162 219.384L523.101 219.432C518.896 222.855 513.628 224.704 508.206 224.661C501.794 224.661 495.251 222.403 488.5 220.072Z" fill="#638DFF"/>
<path d="M631.087 347L0.913304 347C0.671084 347 0.438785 346.904 0.26751 346.733C0.096234 346.562 7.62939e-06 346.329 7.62939e-06 346.087C7.62939e-06 345.845 0.096234 345.613 0.26751 345.442C0.438785 345.271 0.671084 345.175 0.913304 345.175L631.087 345.175C631.329 345.175 631.561 345.271 631.732 345.442C631.904 345.613 632 345.845 632 346.087C632 346.329 631.904 346.562 631.732 346.733C631.561 346.904 631.329 347 631.087 347Z" fill="#CCCCCC">
                                    <animate attributeName="d" values="M631.087 347L0.913304 347C0.671084 347 0.438785 346.904 0.26751 346.733C0.096234 346.562 7.62939e-06 346.329 7.62939e-06 346.087C7.62939e-06 345.845 0.096234 345.613 0.26751 345.442C0.438785 345.271 0.671084 345.175 0.913304 345.175L631.087 345.175C631.329 345.175 631.561 345.271 631.732 345.442C631.904 345.613 632 345.845 632 346.087C632 346.329 631.904 346.562 631.732 346.733C631.561 346.904 631.329 347 631.087 347Z;M631.087 347L0.913304 347C0.671084 347 0.438785 346.904 0.26751 346.733C0.096234 346.562 7.62939e-06 346.329 7.62939e-06 346.087C7.62939e-06 345.845 0.096234 345.613 0.26751 345.442C0.438785 345.271 0.671084 345.175 0.913304 345.175L631.087 345.175C631.329 345.175 631.561 345.271 631.733 345.442C631.904 345.613 632 345.845 632 346.087C632 346.329 631.904 346.562 631.733 346.733C631.561 346.904 631.329 347 631.087 347Z;M631.087 347L0.913304 347C0.671084 347 0.438785 346.904 0.26751 346.733C0.096234 346.562 7.62939e-06 346.329 7.62939e-06 346.087C7.62939e-06 345.845 0.096234 345.613 0.26751 345.442C0.438785 345.271 0.671084 345.175 0.913304 345.175L631.087 345.175C631.329 345.175 631.561 345.271 631.732 345.442C631.904 345.613 632 345.845 632 346.087C632 346.329 631.904 346.562 631.732 346.733C631.561 346.904 631.329 347 631.087 347Z" begin="0s" dur="4s" repeatCount="indefinite" calcMode="linear" keyTimes="0;0.5;1"/></path>
</g>
<defs>
<clipPath id="clip0_159_121">
<rect width="632" height="274" fill="white" transform="translate(0 73)"/>
</clipPath>
</defs>
</svg>